<svg id="Accounting" height="512" viewBox="0 0 64 64" width="512" xmlns="http://www.w3.org/2000/svg"><path d="m49 29h-18-12v22h12 18 12v-22z" fill="#16bb87"/><path d="m53 33h-26a4 4 0 0 1 -4 4v6a4 4 0 0 1 4 4h26a4 4 0 0 1 4-4v-6a4 4 0 0 1 -4-4z" fill="#0beaa2"/><circle cx="40" cy="40" fill="#fbdf63" r="7"/><path d="m19 51h42v4h-42z" fill="#14a87a"/><path d="m19 55h42v4h-42z" fill="#12966c"/><path d="m36 51h8v8h-8z" fill="#d9f0f4"/><rect fill="#56788b" height="41" rx="2" width="30" x="9" y="18"/><path d="m35 22h-22v-16l3-3 4 3 4-3 4 3 4-2.879 3 3z" fill="#5bcbfa"/><g fill="#bce8fe"><path d="m22 34h4v4h-4z"/><path d="m22 42h4v4h-4z"/><path d="m22 50h4v4h-4z"/><path d="m30 34h4v4h-4z"/><path d="m30 42h4v4h-4z"/><path d="m30 50h4v4h-4z"/><path d="m14 25h20v6h-20z"/></g><path d="m9 23-4.824 10.794a10.005 10.005 0 0 0 -1.176 4.706v22.5h12l.848-1.188a10 10 0 0 0 0-11.624l-.848-1.188 3.347-4.686a3.759 3.759 0 0 0 -.123-4.534 3.76 3.76 0 0 0 -5.121-.711l-4.103 2.931z" fill="#ffddce"/><circle cx="49" cy="19" fill="#fbdf63" r="10"/><path d="m47 22a1 1 0 0 1 -1-1h-2a3.009 3.009 0 0 0 3 3h1v2h2v-2h1a3 3 0 0 0 0-6h-1v-2h1a1 1 0 0 1 1 1h2a3.009 3.009 0 0 0 -3-3h-1v-2h-2v2h-1a3 3 0 0 0 0 6h1v2zm3-2h1a1 1 0 0 1 0 2h-1zm-3-2a1 1 0 0 1 0-2h1v2z" fill="#ff9811"/><path d="m16 9h2v2h-2z" fill="#1a6fb0"/><path d="m20 9h12v2h-12z" fill="#1a6fb0"/><path d="m16 13h4v2h-4z" fill="#1a6fb0"/><path d="m22 13h10v2h-10z" fill="#1a6fb0"/><path d="m16 17h2v2h-2z" fill="#1a6fb0"/><path d="m20 17h12v2h-12z" fill="#1a6fb0"/></svg>